<svg width="30" height="30" viewBox="0 0 30 30" fill="none" xmlns="http://www.w3.org/2000/svg">
<path fill-rule="evenodd" clip-rule="evenodd" d="M29.3093 7.20789C29.5203 6.49737 29.3093 6 28.3245 6H25.0418C24.1977 6 23.8226 6.45 23.6115 6.94737C23.6115 6.94737 21.9468 11.0684 19.5786 13.7211C18.8048 14.5026 18.4766 14.7395 18.0545 14.7395C17.8435 14.7395 17.5387 14.5026 17.5387 13.7921V7.20789C17.5387 6.35526 17.3042 6 16.6008 6H11.4423C10.9265 6 10.5982 6.40263 10.5982 6.75789C10.5982 7.56316 11.7706 7.75263 11.9113 9.97895V14.8579C11.9113 15.9237 11.7237 16.1132 11.3017 16.1132C10.1996 16.1132 7.47973 11.9921 5.8853 7.25526C5.55704 6.37895 5.25222 6 4.40811 6H1.12548C0.187579 6 0 6.45 0 6.94737C0 7.82368 1.10203 12.1816 5.18188 17.9368C7.90178 21.8684 11.7237 24 15.1939 24C17.2807 24 17.5387 23.5263 17.5387 22.7211V19.7368C17.5387 18.7895 17.7262 18.6 18.4062 18.6C18.8986 18.6 19.7193 18.8368 21.6654 20.7316C23.8929 22.9816 24.2681 24 25.5108 24H28.7934C29.7313 24 30.2003 23.5263 29.9189 22.6026C29.6141 21.6789 28.559 20.3289 27.1521 18.7184C26.3783 17.7947 25.2294 16.8237 24.9012 16.3263C24.4088 15.6868 24.5494 15.4026 24.9012 14.8579C24.9012 14.8342 28.9107 9.15 29.3093 7.20789Z" fill="white"/>
</svg>
